<svg xmlns="http://www.w3.org/2000/svg" xmlns:xlink="http://www.w3.org/1999/xlink" width="500" zoomAndPan="magnify" viewBox="0 0 375 374.999991" height="500" preserveAspectRatio="xMidYMid meet" version="1.0"><defs><clipPath id="id1"><path d="M 33.503906 33.503906 L 341.753906 33.503906 L 341.753906 341.753906 L 33.503906 341.753906 Z M 33.503906 33.503906 " clip-rule="nonzero"/></clipPath></defs><g clip-path="url(#id1)"><path fill="#57a1d9" d="M 187.628906 33.503906 C 102.507812 33.503906 33.503906 102.507812 33.503906 187.628906 C 33.503906 272.75 102.507812 341.753906 187.628906 341.753906 C 272.75 341.753906 341.753906 272.75 341.753906 187.628906 C 341.753906 102.507812 272.75 33.503906 187.628906 33.503906 " fill-opacity="1" fill-rule="nonzero"/></g><path fill="#ffffff" d="M 124.175781 178.574219 C 120.480469 174.898438 118.378906 170.226562 117.855469 165.417969 C 115.226562 169.804688 111.769531 174.257812 107.558594 178.449219 C 100.265625 185.703125 92.179688 190.773438 85.023438 193.09375 C 85.03125 193.097656 85.03125 193.097656 85.039062 193.101562 C 82.277344 193.988281 79.675781 195.503906 77.480469 197.691406 C 70.097656 205.039062 70.097656 216.953125 77.480469 224.296875 C 84.863281 231.644531 96.835938 231.644531 104.21875 224.296875 C 106.425781 222.105469 107.960938 219.496094 108.847656 216.726562 C 111.347656 209.925781 116.230469 202.402344 123.097656 195.570312 C 127.316406 191.371094 131.804688 187.929688 136.226562 185.304688 C 135.148438 184.804688 134.074219 184.335938 133.007812 183.945312 C 129.636719 182.855469 126.664062 181.054688 124.175781 178.574219 Z M 96.371094 217.320312 C 93.089844 220.589844 87.765625 220.589844 84.480469 217.320312 C 81.199219 214.054688 81.199219 208.757812 84.480469 205.492188 C 87.765625 202.222656 93.089844 202.222656 96.371094 205.492188 C 99.65625 208.757812 99.65625 214.054688 96.371094 217.320312 Z M 96.371094 217.320312 " fill-opacity="1" fill-rule="nonzero"/><path fill="#ffffff" d="M 172.507812 179.652344 C 165.21875 172.394531 160.125 164.347656 157.789062 157.226562 C 157.785156 157.234375 157.785156 157.238281 157.78125 157.242188 C 156.894531 154.492188 155.367188 151.902344 153.175781 149.722656 C 145.789062 142.375 133.816406 142.375 126.433594 149.722656 C 119.050781 157.066406 119.050781 168.980469 126.433594 176.328125 C 128.640625 178.523438 131.261719 180.050781 134.042969 180.933594 C 140.878906 183.421875 148.441406 188.28125 155.304688 195.113281 C 162.59375 202.367188 167.6875 210.417969 170.023438 217.535156 C 170.027344 217.53125 170.027344 217.527344 170.03125 217.519531 C 170.917969 220.269531 172.445312 222.859375 174.636719 225.042969 C 182.019531 232.390625 193.996094 232.390625 201.378906 225.042969 C 208.761719 217.695312 208.761719 205.78125 201.378906 198.433594 C 199.171875 196.238281 196.550781 194.714844 193.769531 193.832031 C 186.933594 191.34375 179.375 186.484375 172.507812 179.652344 Z M 133.292969 156.917969 C 136.578125 153.652344 141.902344 153.652344 145.183594 156.917969 C 148.46875 160.183594 148.46875 165.484375 145.183594 168.75 C 141.902344 172.015625 136.578125 172.015625 133.292969 168.75 C 130.011719 165.484375 130.011719 160.183594 133.292969 156.917969 Z M 194.28125 217.605469 C 190.996094 220.871094 185.671875 220.871094 182.390625 217.605469 C 179.109375 214.335938 179.109375 209.039062 182.390625 205.773438 C 185.671875 202.503906 190.996094 202.503906 194.28125 205.773438 C 197.5625 209.039062 197.5625 214.335938 194.28125 217.605469 Z M 194.28125 217.605469 " fill-opacity="1" fill-rule="nonzero"/><path fill="#ffffff" d="M 220.628906 178.574219 C 216.9375 174.898438 214.835938 170.226562 214.308594 165.417969 C 211.679688 169.804688 208.222656 174.257812 204.011719 178.449219 C 196.722656 185.703125 188.632812 190.773438 181.476562 193.09375 C 181.484375 193.097656 181.488281 193.097656 181.492188 193.101562 C 178.730469 193.988281 176.128906 195.503906 173.933594 197.691406 C 166.550781 205.039062 166.550781 216.953125 173.933594 224.296875 C 181.316406 231.644531 193.289062 231.644531 200.675781 224.296875 C 202.878906 222.105469 204.414062 219.496094 205.300781 216.726562 C 207.800781 209.925781 212.683594 202.402344 219.550781 195.570312 C 223.769531 191.371094 228.257812 187.929688 232.679688 185.304688 C 231.601562 184.804688 230.527344 184.335938 229.460938 183.945312 C 226.089844 182.855469 223.117188 181.054688 220.628906 178.574219 Z M 192.828125 217.320312 C 189.542969 220.589844 184.21875 220.589844 180.9375 217.320312 C 177.652344 214.054688 177.652344 208.757812 180.9375 205.492188 C 184.21875 202.222656 189.542969 202.222656 192.828125 205.492188 C 196.113281 208.757812 196.113281 214.054688 192.828125 217.320312 Z M 192.828125 217.320312 " fill-opacity="1" fill-rule="nonzero"/><path fill="#ffffff" d="M 268.960938 179.652344 C 261.671875 172.394531 256.578125 164.347656 254.242188 157.226562 C 254.238281 157.234375 254.238281 157.238281 254.238281 157.242188 C 253.347656 154.492188 251.820312 151.902344 249.628906 149.722656 C 242.246094 142.375 230.273438 142.375 222.886719 149.722656 C 215.503906 157.066406 215.503906 168.980469 222.886719 176.328125 C 225.09375 178.523438 227.714844 180.050781 230.496094 180.933594 C 237.332031 183.421875 244.894531 188.28125 251.757812 195.113281 C 259.046875 202.367188 264.140625 210.417969 266.476562 217.535156 C 266.480469 217.53125 266.480469 217.527344 266.484375 217.519531 C 267.371094 220.269531 268.898438 222.859375 271.089844 225.042969 C 278.476562 232.390625 290.449219 232.390625 297.832031 225.042969 C 305.214844 217.695312 305.214844 205.78125 297.832031 198.433594 C 295.625 196.238281 293.003906 194.714844 290.222656 193.832031 C 283.386719 191.34375 275.828125 186.484375 268.960938 179.652344 Z M 229.75 156.917969 C 233.03125 153.652344 238.355469 153.652344 241.640625 156.917969 C 244.921875 160.183594 244.921875 165.484375 241.640625 168.75 C 238.355469 172.015625 233.03125 172.015625 229.75 168.75 C 226.464844 165.484375 226.464844 160.183594 229.75 156.917969 Z M 290.734375 217.605469 C 287.453125 220.871094 282.125 220.871094 278.84375 217.605469 C 275.5625 214.335938 275.5625 209.039062 278.84375 205.773438 C 282.125 202.503906 287.453125 202.503906 290.734375 205.773438 C 294.015625 209.039062 294.015625 214.335938 290.734375 217.605469 Z M 290.734375 217.605469 " fill-opacity="1" fill-rule="nonzero"/><path fill="#ffffff" d="M 250.8125 241.484375 C 254.507812 245.160156 256.609375 249.828125 257.132812 254.636719 C 259.761719 250.25 263.21875 245.800781 267.429688 241.609375 C 274.722656 234.351562 282.808594 229.285156 289.964844 226.960938 C 289.957031 226.957031 289.957031 226.957031 289.949219 226.953125 C 292.710938 226.070312 295.316406 224.550781 297.507812 222.367188 C 304.890625 215.019531 304.890625 203.105469 297.507812 195.757812 C 290.125 188.410156 278.152344 188.410156 270.769531 195.757812 C 268.5625 197.953125 267.027344 200.558594 266.140625 203.328125 C 263.640625 210.128906 258.757812 217.652344 251.890625 224.484375 C 247.671875 228.683594 243.183594 232.125 238.761719 234.75 C 239.84375 235.253906 240.914062 235.722656 241.980469 236.109375 C 245.351562 237.199219 248.324219 239.003906 250.8125 241.484375 Z M 278.617188 202.734375 C 281.898438 199.46875 287.222656 199.46875 290.507812 202.734375 C 293.789062 206 293.789062 211.300781 290.507812 214.566406 C 287.222656 217.832031 281.898438 217.832031 278.617188 214.566406 C 275.332031 211.300781 275.332031 206 278.617188 202.734375 Z M 278.617188 202.734375 " fill-opacity="1" fill-rule="nonzero"/><path fill="#ffffff" d="M 202.480469 240.40625 C 209.769531 247.660156 214.863281 255.707031 217.199219 262.828125 C 217.203125 262.824219 217.203125 262.820312 217.207031 262.8125 C 218.09375 265.5625 219.621094 268.152344 221.816406 270.335938 C 229.199219 277.679688 241.171875 277.679688 248.554688 270.335938 C 255.9375 262.988281 255.9375 251.074219 248.554688 243.726562 C 246.347656 241.53125 243.726562 240.003906 240.945312 239.121094 C 234.109375 236.632812 226.550781 231.777344 219.6875 224.941406 C 212.394531 217.6875 207.300781 209.640625 204.964844 202.519531 C 204.960938 202.527344 204.960938 202.527344 204.960938 202.535156 C 204.070312 199.785156 202.542969 197.195312 200.351562 195.011719 C 192.96875 187.667969 180.996094 187.667969 173.609375 195.011719 C 166.226562 202.359375 166.226562 214.273438 173.609375 221.621094 C 175.816406 223.816406 178.4375 225.339844 181.21875 226.226562 C 188.054688 228.710938 195.613281 233.574219 202.480469 240.40625 Z M 241.695312 263.136719 C 238.410156 266.402344 233.085938 266.402344 229.804688 263.136719 C 226.519531 259.871094 226.519531 254.574219 229.804688 251.304688 C 233.085938 248.039062 238.410156 248.039062 241.695312 251.304688 C 244.976562 254.574219 244.976562 259.871094 241.695312 263.136719 Z M 180.707031 202.453125 C 183.992188 199.1875 189.316406 199.1875 192.597656 202.453125 C 195.882812 205.71875 195.882812 211.015625 192.597656 214.285156 C 189.316406 217.550781 183.992188 217.550781 180.707031 214.285156 C 177.425781 211.015625 177.425781 205.722656 180.707031 202.453125 Z M 180.707031 202.453125 " fill-opacity="1" fill-rule="nonzero"/><path fill="#ffffff" d="M 154.359375 241.484375 C 158.054688 245.160156 160.152344 249.828125 160.679688 254.636719 C 163.308594 250.25 166.765625 245.800781 170.976562 241.609375 C 178.269531 234.351562 186.355469 229.285156 193.511719 226.960938 C 193.503906 226.957031 193.5 226.957031 193.496094 226.953125 C 196.257812 226.070312 198.859375 224.550781 201.054688 222.367188 C 208.4375 215.019531 208.4375 203.105469 201.054688 195.757812 C 193.671875 188.410156 181.699219 188.410156 174.316406 195.757812 C 172.109375 197.953125 170.574219 200.558594 169.6875 203.328125 C 167.1875 210.128906 162.304688 217.652344 155.4375 224.484375 C 151.21875 228.683594 146.730469 232.125 142.308594 234.75 C 143.386719 235.253906 144.460938 235.722656 145.527344 236.109375 C 148.898438 237.199219 151.871094 239.003906 154.359375 241.484375 Z M 182.164062 202.734375 C 185.445312 199.46875 190.769531 199.46875 194.050781 202.734375 C 197.335938 206 197.335938 211.300781 194.050781 214.566406 C 190.769531 217.832031 185.445312 217.832031 182.164062 214.566406 C 178.875 211.300781 178.875 206 182.164062 202.734375 Z M 182.164062 202.734375 " fill-opacity="1" fill-rule="nonzero"/><path fill="#ffffff" d="M 106.027344 240.40625 C 113.316406 247.660156 118.410156 255.707031 120.746094 262.828125 C 120.75 262.824219 120.75 262.820312 120.753906 262.8125 C 121.640625 265.5625 123.167969 268.152344 125.359375 270.335938 C 132.742188 277.679688 144.71875 277.679688 152.101562 270.335938 C 159.484375 262.988281 159.484375 251.074219 152.101562 243.726562 C 149.894531 241.53125 147.273438 240.003906 144.492188 239.121094 C 137.65625 236.632812 130.09375 231.777344 123.230469 224.941406 C 115.941406 217.6875 110.847656 209.640625 108.511719 202.519531 C 108.507812 202.527344 108.507812 202.527344 108.503906 202.535156 C 107.617188 199.785156 106.089844 197.195312 103.898438 195.011719 C 96.515625 187.667969 84.539062 187.667969 77.15625 195.011719 C 69.773438 202.359375 69.773438 214.273438 77.15625 221.621094 C 79.363281 223.816406 81.984375 225.339844 84.765625 226.226562 C 91.601562 228.710938 99.160156 233.574219 106.027344 240.40625 Z M 145.238281 263.136719 C 141.957031 266.402344 136.632812 266.402344 133.351562 263.136719 C 130.066406 259.871094 130.066406 254.574219 133.351562 251.304688 C 136.632812 248.039062 141.957031 248.039062 145.238281 251.304688 C 148.523438 254.574219 148.523438 259.871094 145.238281 263.136719 Z M 84.253906 202.453125 C 87.535156 199.1875 92.863281 199.1875 96.144531 202.453125 C 99.425781 205.71875 99.425781 211.015625 96.144531 214.285156 C 92.863281 217.550781 87.535156 217.550781 84.253906 214.285156 C 80.972656 211.015625 80.972656 205.722656 84.253906 202.453125 Z M 84.253906 202.453125 " fill-opacity="1" fill-rule="nonzero"/><path fill="#ffffff" d="M 250.8125 151.359375 C 254.507812 155.035156 256.609375 159.703125 257.132812 164.515625 C 259.761719 160.128906 263.21875 155.675781 267.429688 151.484375 C 274.722656 144.230469 282.808594 139.160156 289.964844 136.835938 C 289.957031 136.835938 289.957031 136.835938 289.949219 136.832031 C 292.710938 135.945312 295.316406 134.429688 297.507812 132.242188 C 304.890625 124.894531 304.890625 112.980469 297.507812 105.632812 C 290.125 98.289062 278.152344 98.289062 270.769531 105.632812 C 268.5625 107.828125 267.027344 110.4375 266.140625 113.203125 C 263.640625 120.007812 258.757812 127.53125 251.890625 134.359375 C 247.671875 138.5625 243.183594 142 238.761719 144.628906 C 239.84375 145.128906 240.914062 145.597656 241.980469 145.988281 C 245.351562 147.078125 248.324219 148.878906 250.8125 151.359375 Z M 278.617188 112.609375 C 281.898438 109.34375 287.222656 109.34375 290.507812 112.609375 C 293.789062 115.878906 293.789062 121.175781 290.507812 124.441406 C 287.222656 127.710938 281.898438 127.710938 278.617188 124.441406 C 275.332031 121.175781 275.332031 115.878906 278.617188 112.609375 Z M 278.617188 112.609375 " fill-opacity="1" fill-rule="nonzero"/><path fill="#ffffff" d="M 202.480469 150.28125 C 209.769531 157.539062 214.863281 165.585938 217.199219 172.707031 C 217.203125 172.699219 217.203125 172.695312 217.207031 172.691406 C 218.09375 175.441406 219.621094 178.03125 221.816406 180.210938 C 229.199219 187.558594 241.171875 187.558594 248.554688 180.210938 C 255.9375 172.863281 255.9375 160.949219 248.554688 153.605469 C 246.347656 151.410156 243.726562 149.882812 240.945312 149 C 234.109375 146.511719 226.550781 141.652344 219.6875 134.820312 C 212.394531 127.566406 207.300781 119.515625 204.964844 112.398438 C 204.960938 112.402344 204.960938 112.40625 204.960938 112.414062 C 204.070312 109.664062 202.542969 107.074219 200.351562 104.890625 C 192.96875 97.542969 180.996094 97.542969 173.609375 104.890625 C 166.226562 112.238281 166.226562 124.152344 173.609375 131.5 C 175.816406 133.695312 178.4375 135.21875 181.21875 136.101562 C 188.054688 138.589844 195.613281 143.449219 202.480469 150.28125 Z M 241.695312 173.015625 C 238.410156 176.28125 233.085938 176.28125 229.804688 173.015625 C 226.519531 169.75 226.519531 164.449219 229.804688 161.183594 C 233.085938 157.917969 238.410156 157.917969 241.695312 161.183594 C 244.976562 164.449219 244.976562 169.75 241.695312 173.015625 Z M 180.707031 112.328125 C 183.992188 109.0625 189.316406 109.0625 192.597656 112.328125 C 195.882812 115.597656 195.882812 120.894531 192.597656 124.160156 C 189.316406 127.425781 183.992188 127.425781 180.707031 124.160156 C 177.425781 120.894531 177.425781 115.597656 180.707031 112.328125 Z M 180.707031 112.328125 " fill-opacity="1" fill-rule="nonzero"/></svg>